<svg width="186" height="48" viewBox="0 0 186 48" fill="none" xmlns="http://www.w3.org/2000/svg">
<g clip-path="url(#clip0_13_7)">
<path d="M9.55955 25.3204L9.35163 25.1339H2.60467C2.40337 25.1339 2.31264 25.0037 2.27578 24.9268C2.23892 24.849 2.19734 24.6963 2.32587 24.5435L18.5029 5.35788C18.6248 5.21263 18.7741 5.1817 18.9442 5.26698C19.1143 5.35226 19.1786 5.48908 19.1342 5.67275L16.1307 18.0118H18.4329L21.3098 6.19379C21.599 5.00459 21.0527 3.836 19.9517 3.28591C18.8497 2.73582 17.5776 2.99634 16.7866 3.93533L0.6096 23.121C-0.0453431 23.8979 -0.183325 24.9502 0.248578 25.8667C0.681427 26.7842 1.58398 27.3539 2.60467 27.3539H9.06338L9.5586 25.3213L9.55955 25.3204Z" fill="black"/>
<path d="M8.93313 43C8.5343 43 8.12886 42.9072 7.74421 42.7142C6.64224 42.1641 6.09693 40.9955 6.38612 39.8063L9.91412 25.3109C9.94531 25.1826 9.90373 25.0476 9.80449 24.9595L7.77162 23.1378C7.16109 22.5905 6.85111 21.8155 6.92104 21.0124C7.04012 19.6629 8.15532 18.6461 9.5153 18.6461H25.0884C26.1091 18.6461 27.0116 19.2159 27.4445 20.1334C27.8773 21.0508 27.7384 22.1022 27.0835 22.8791L10.9074 42.0657C10.3923 42.6767 9.67407 43 8.93124 43H8.93313ZM9.51624 20.8652C9.18546 20.8652 9.15239 21.1914 9.15144 21.2054C9.14199 21.316 9.18168 21.4097 9.27241 21.4922L11.3043 23.3139C12.0122 23.9484 12.3127 24.9127 12.0888 25.832L8.56076 40.3273C8.5154 40.511 8.57966 40.6478 8.74978 40.7331C8.92178 40.8184 9.06922 40.7875 9.19113 40.6431L25.3672 21.4566C25.4957 21.3038 25.4541 21.1511 25.4173 21.0733C25.3804 20.9955 25.2897 20.8662 25.0884 20.8662H9.51624V20.8652Z" fill="#FFAB11"/>
</g>
<path d="M35.2188 38V10.5H46.2188V15.8594H40.75V20.2344H45.9375V25.5312H40.75V38H35.2188ZM48 38V10.5H53.5V33.3125H59.1562V38H48ZM59.9688 38L62.625 10.5H71.9531L74.5625 38H69.3594L68.9688 33.5625H65.6562L65.3125 38H59.9688ZM66.0469 29.1719H68.5469L67.3438 15.1875H67.0938L66.0469 29.1719ZM82.7812 38.25C80.2708 38.25 78.4583 37.625 77.3438 36.375C76.2396 35.125 75.6875 33.1354 75.6875 30.4062V27.7188H81.125V31.1562C81.125 31.7917 81.2188 32.2917 81.4062 32.6562C81.6042 33.0104 81.9427 33.1875 82.4219 33.1875C82.9219 33.1875 83.2656 33.0417 83.4531 32.75C83.651 32.4583 83.75 31.9792 83.75 31.3125C83.75 30.4688 83.6667 29.7656 83.5 29.2031C83.3333 28.6302 83.0417 28.0885 82.625 27.5781C82.2188 27.0573 81.651 26.4531 80.9219 25.7656L78.4531 23.4219C76.6094 21.6823 75.6875 19.6927 75.6875 17.4531C75.6875 15.1094 76.2292 13.3229 77.3125 12.0938C78.4062 10.8646 79.9844 10.25 82.0469 10.25C84.5677 10.25 86.3542 10.9219 87.4062 12.2656C88.4688 13.6094 89 15.651 89 18.3906H83.4062V16.5C83.4062 16.125 83.2969 15.8333 83.0781 15.625C82.8698 15.4167 82.5833 15.3125 82.2188 15.3125C81.7812 15.3125 81.4583 15.4375 81.25 15.6875C81.0521 15.9271 80.9531 16.2396 80.9531 16.625C80.9531 17.0104 81.0573 17.4271 81.2656 17.875C81.474 18.3229 81.8854 18.8385 82.5 19.4219L85.6719 22.4688C86.3073 23.0729 86.8906 23.7135 87.4219 24.3906C87.9531 25.0573 88.3802 25.8385 88.7031 26.7344C89.026 27.6198 89.1875 28.7031 89.1875 29.9844C89.1875 32.5677 88.7083 34.5938 87.75 36.0625C86.8021 37.5208 85.1458 38.25 82.7812 38.25ZM91.0312 38V10.5H96.5V20.3281H99.0938V10.5H104.562V38H99.0938V25.5312H96.5V38H91.0312ZM114.5 38V10.5H122.875L125.188 27.2656L127.484 10.5H135.938V38H130.906V18.1875L127.75 38H122.812L119.469 18.1875V38H114.5ZM138.375 38V10.5H149.375V15.8125H143.969V21.1719H149.156V26.3438H143.969V32.6406H149.734V38H138.375ZM159.062 38V10.5H164.562V33.3125H170.219V38H159.062ZM171.781 38V10.5H177.219V21.5156L179.781 10.5H185.312L182.234 23.0938L185.953 38H180.25L177.25 24.6875V38H171.781Z" fill="black"/>
<defs>
<clipPath id="clip0_13_7">
<rect width="28" height="40" fill="white" transform="translate(0 3)"/>
</clipPath>
</defs>
</svg>
